<svg height="698" viewBox="0 0 698 698" width="698" xmlns="http://www.w3.org/2000/svg" xmlns:xlink="http://www.w3.org/1999/xlink"><linearGradient id="a" gradientUnits="userSpaceOnUse" x1="349" x2="349" y1="698"><stop offset="0" stop-color="#808080" stop-opacity=".25"/><stop offset=".54" stop-color="#808080" stop-opacity=".12"/><stop offset="1" stop-color="#808080" stop-opacity=".1"/></linearGradient><circle cx="349" cy="349" fill="url(#a)" opacity=".5" r="349"/><circle cx="349.68" cy="346.77" fill="#f5f5f5" r="341.64"/><path d="m601 790.76a340 340 0 0 0 187.79-56.2c-12.59-68.8-60.5-72.72-60.5-72.72h-264.2s-45.21 3.71-59.33 67a340.07 340.07 0 0 0 196.24 61.92z" fill="#6c63ff" transform="translate(-251 -101)"/><circle cx="346.37" cy="339.57" fill="#333" r="164.9"/><path d="m293.15 476.92h105.66a0 0 0 0 1 0 0v84.53a52.83 52.83 0 0 1 -52.81 52.83 52.83 52.83 0 0 1 -52.83-52.83v-84.53a0 0 0 0 1 0 0z" opacity=".1"/><path d="m296.5 473h99a3.35 3.35 0 0 1 3.35 3.35v81.18a52.83 52.83 0 0 1 -52.85 52.84 52.83 52.83 0 0 1 -52.83-52.83v-81.19a3.35 3.35 0 0 1 3.33-3.35z" fill="#fdb797"/><path d="m544.34 617.82a152.07 152.07 0 0 0 105.66.29v-13h-105.66z" opacity=".1" transform="translate(-251 -101)"/><circle cx="346.37" cy="372.44" fill="#fdb797" r="151.45"/><g transform="translate(-251 -101)"><path d="m489.49 335.68s63.83 129.56 243.88 54.32l-41.92-65.73-74.31-26.67z" opacity=".1"/><path d="m489.49 333.78s63.83 129.56 243.88 54.3l-41.92-65.73-74.31-26.67z" fill="#333"/><path d="m488.93 325a87.49 87.49 0 0 1 21.69-35.27c29.79-29.45 78.63-35.66 103.68-69.24 6 9.32 1.36 23.65-9 27.65 24-.16 51.81-2.26 65.38-22a44.89 44.89 0 0 1 -7.57 47.4c21.27 1 44 15.4 45.34 36.65.92 14.16-8 27.56-19.59 35.68s-25.71 11.85-39.56 14.9c-40.44 8.93-186.76 46.3-160.37-35.77z" fill="#333"/></g><ellipse cx="194.86" cy="372.3" fill="#fdb797" rx="14.09" ry="26.42"/><ellipse cx="497.8" cy="372.3" fill="#fdb797" rx="14.09" ry="26.42"/></svg>